<svg xmlns="http://www.w3.org/2000/svg" xmlns:xlink="http://www.w3.org/1999/xlink" width="36" height="36" viewBox="0 0 36 36">
  <defs>
    <path id="icon-google-a" d="M34.7727273,14.7272727 L18,14.7272727 L18,21.6818182 L27.6545455,21.6818182 C26.7545455,26.1 22.9909091,28.6363636 18,28.6363636 C12.1090909,28.6363636 7.36363636,23.8909091 7.36363636,18 C7.36363636,12.1090909 12.1090909,7.36363636 18,7.36363636 C20.5363636,7.36363636 22.8272727,8.26363636 24.6272727,9.73636364 L29.8636364,4.5 C26.6727273,1.71818182 22.5818182,0 18,0 C8.01818182,0 0,8.01818182 0,18 C0,27.9818182 8.01818182,36 18,36 C27,36 35.1818182,29.4545455 35.1818182,18 C35.1818182,16.9363636 35.0181818,15.7909091 34.7727273,14.7272727 Z"/>
    <path id="icon-google-c" d="M34.7727273,14.7272727 L18,14.7272727 L18,21.6818182 L27.6545455,21.6818182 C26.7545455,26.1 22.9909091,28.6363636 18,28.6363636 C12.1090909,28.6363636 7.36363636,23.8909091 7.36363636,18 C7.36363636,12.1090909 12.1090909,7.36363636 18,7.36363636 C20.5363636,7.36363636 22.8272727,8.26363636 24.6272727,9.73636364 L29.8636364,4.5 C26.6727273,1.71818182 22.5818182,0 18,0 C8.01818182,0 0,8.01818182 0,18 C0,27.9818182 8.01818182,36 18,36 C27,36 35.1818182,29.4545455 35.1818182,18 C35.1818182,16.9363636 35.0181818,15.7909091 34.7727273,14.7272727 Z"/>
    <path id="icon-google-e" d="M34.7727273,14.7272727 L18,14.7272727 L18,21.6818182 L27.6545455,21.6818182 C26.7545455,26.1 22.9909091,28.6363636 18,28.6363636 C12.1090909,28.6363636 7.36363636,23.8909091 7.36363636,18 C7.36363636,12.1090909 12.1090909,7.36363636 18,7.36363636 C20.5363636,7.36363636 22.8272727,8.26363636 24.6272727,9.73636364 L29.8636364,4.5 C26.6727273,1.71818182 22.5818182,0 18,0 C8.01818182,0 0,8.01818182 0,18 C0,27.9818182 8.01818182,36 18,36 C27,36 35.1818182,29.4545455 35.1818182,18 C35.1818182,16.9363636 35.0181818,15.7909091 34.7727273,14.7272727 Z"/>
    <path id="icon-google-g" d="M34.7727273,14.7272727 L18,14.7272727 L18,21.6818182 L27.6545455,21.6818182 C26.7545455,26.1 22.9909091,28.6363636 18,28.6363636 C12.1090909,28.6363636 7.36363636,23.8909091 7.36363636,18 C7.36363636,12.1090909 12.1090909,7.36363636 18,7.36363636 C20.5363636,7.36363636 22.8272727,8.26363636 24.6272727,9.73636364 L29.8636364,4.5 C26.6727273,1.71818182 22.5818182,0 18,0 C8.01818182,0 0,8.01818182 0,18 C0,27.9818182 8.01818182,36 18,36 C27,36 35.1818182,29.4545455 35.1818182,18 C35.1818182,16.9363636 35.0181818,15.7909091 34.7727273,14.7272727 Z"/>
  </defs>
  <g fill="none" fill-rule="evenodd">
    <mask id="icon-google-b" fill="#fff">
      <use xlink:href="#icon-google-a"/>
    </mask>
    <polygon fill="#FBBC05" fill-rule="nonzero" points="-1.636 28.636 -1.636 7.364 12.273 18" mask="url(#icon-google-b)"/>
    <mask id="icon-google-d" fill="#fff">
      <use xlink:href="#icon-google-c"/>
    </mask>
    <polygon fill="#EA4335" fill-rule="nonzero" points="-1.636 7.364 12.273 18 18 13.009 37.636 9.818 37.636 -1.636 -1.636 -1.636" mask="url(#icon-google-d)"/>
    <mask id="icon-google-f" fill="#fff">
      <use xlink:href="#icon-google-e"/>
    </mask>
    <polygon fill="#34A853" fill-rule="nonzero" points="-1.636 28.636 22.909 9.818 29.373 10.636 37.636 -1.636 37.636 37.636 -1.636 37.636" mask="url(#icon-google-f)"/>
    <mask id="icon-google-h" fill="#fff">
      <use xlink:href="#icon-google-g"/>
    </mask>
    <polygon fill="#4285F4" fill-rule="nonzero" points="37.636 37.636 12.273 18 9 15.545 37.636 7.364" mask="url(#icon-google-h)"/>
  </g>
</svg>
