<svg xmlns="http://www.w3.org/2000/svg" width="36" height="36" viewBox="0 0 36 36">
  <path fill="#1877F2" fill-rule="evenodd" d="M36,18 C36,8.05886719 27.9411328,0 18,0 C8.05886719,0 0,8.05886719 0,18 C0,26.9843203 6.58233984,34.4309766 15.1875,35.7813281 L15.1875,23.203125 L10.6171875,23.203125 L10.6171875,18 L15.1875,18 L15.1875,14.034375 C15.1875,9.523125 17.8747734,7.03125 21.9863672,7.03125 C23.9557148,7.03125 26.015625,7.3828125 26.015625,7.3828125 L26.015625,11.8125 L23.7458672,11.8125 C21.5098242,11.8125 20.8125,13.2000117 20.8125,14.6234883 L20.8125,18 L25.8046875,18 L25.0066406,23.203125 L20.8125,23.203125 L20.8125,35.7813281 C29.4176602,34.4309766 36,26.9843203 36,18"/>
</svg>
