<svg xmlns="http://www.w3.org/2000/svg" width="1433.3" height="1462.6" viewBox="0 0 1433.3 1462.6">
  <path id="Icon_simple-google" data-name="Icon simple-google" d="M731.635,626.785V877.56h414.755c-16.758,107.562-125.292,315.312-414.755,315.312-249.548,0-453.33-206.531-453.33-461.572s203.843-461.572,453.33-461.572c141.989,0,237.116,60.271,291.6,112.681l198.3-191.235C1094.166,72.277,929.019,0,731.635,0,327.3,0,.36,326.952.36,731.3S327.3,1462.6,731.635,1462.6c243.954,0,440.431-99.13,575.544-281.2C1383.8,1079.114,1433.66,924.344,1433.66,748c0-48.022-5.18-84.709-11.518-121.213Z" transform="translate(-0.36)"/>
</svg>
